<svg width="500" height="500" viewBox="0 0 500 500" xmlns="http://www.w3.org/2000/svg">
  <defs>
    <linearGradient id="gradient1" x1="0%" y1="0%" x2="100%" y2="100%">
      <stop offset="0%" style="stop-color:#7c3aed;stop-opacity:1" />
      <stop offset="50%" style="stop-color:#a855f7;stop-opacity:1" />
      <stop offset="100%" style="stop-color:#ec4899;stop-opacity:1" />
    </linearGradient>
  </defs>
  
  <!-- Main S shape -->
  <path d="M 250 100 
           C 350 100, 400 150, 400 210
           C 400 270, 350 300, 250 300
           C 150 300, 100 330, 100 390
           C 100 450, 150 500, 250 500
           C 350 500, 400 450, 400 390
           L 350 390
           C 350 430, 310 460, 250 460
           C 190 460, 150 430, 150 390
           C 150 350, 190 340, 250 340
           C 350 340, 450 310, 450 210
           C 450 110, 350 60, 250 60
           C 150 60, 50 110, 50 210
           L 100 210
           C 100 130, 150 100, 250 100 Z" 
        fill="url(#gradient1)" />
  
  <!-- Swoosh accent -->
  <path d="M 400 250 
           C 450 200, 500 150, 480 100
           L 460 120
           C 470 150, 430 190, 390 230
           Z" 
        fill="#ec4899" opacity="0.8" />
</svg>
